<svg width="171" height="189" viewBox="0 0 171 189" version="1.1" xmlns="http://www.w3.org/2000/svg" xmlns:xlink="http://www.w3.org/1999/xlink">
    <title>social-feed-colour</title>
    <g id="Tinnovation" stroke="none" stroke-width="1" fill="none" fill-rule="evenodd">
        <g id="Create-Event-/-when" transform="translate(-69.000000, -140.000000)">
            <g id="social-feed-colour" transform="translate(69.000000, 140.000000)">
                <path d="M163.133197,39.5617716 C173.269433,51.6387375 172.118506,73.2394365 167.970553,90.5682687 C163.776447,107.940721 156.542048,121.093651 146.405812,136.796905 C136.269575,152.50016 123.240157,170.791543 105.99644,175.01979 C88.752724,179.248037 67.3812463,169.366618 48.5827687,153.663364 C29.7842911,137.960109 13.5155457,116.347778 9.18586723,90.4286842 C4.85907325,64.460154 12.410771,34.1267007 31.2121331,22.0497348 C50.0134952,9.97276885 80.099136,16.1493823 105.857983,20.5172135 C131.567793,24.9286648 152.994076,27.4848057 163.133197,39.5617716 Z" id="Path" fill="#000000" fill-rule="nonzero" vector-effect="non-scaling-stroke"/>
                <path d="M82.2556413,58 C81.8713862,59.9818701 82.2895462,74.170868 81.7329413,76.4090401 C81.1763364,78.6472122 75,106 75,106 L84.8239349,103.135974 C84.8239349,103.135974 88.2681042,95.1518689 89.5169335,87.9634919 C90.6160162,81.6364088 90.4577935,58.1102695 82.2556413,58 Z" id="Path" fill="#D18C65" fill-rule="nonzero" vector-effect="non-scaling-stroke"/>
                <polygon id="Path" fill="#D8D8D8" fill-rule="nonzero" points="73 65 66.005637 65 62 51 68.9974634 51" vector-effect="non-scaling-stroke"/>
                <rect id="Rectangle" fill="#D8D8D8" fill-rule="nonzero" x="86" y="104" width="72" height="72" rx="4" vector-effect="non-scaling-stroke"/>
                <circle id="Oval" fill="#A4A4A4" fill-rule="nonzero" cx="99" cy="119" r="7" vector-effect="non-scaling-stroke"/>
                <line x1="112" y1="116" x2="149" y2="116" id="Path" stroke="#FFFFFF" stroke-width="2.04" stroke-linecap="round" stroke-linejoin="round" vector-effect="non-scaling-stroke"/>
                <line x1="112" y1="121" x2="128" y2="121" id="Path" stroke="#FFFFFF" stroke-width="2.04" stroke-linecap="round" stroke-linejoin="round" vector-effect="non-scaling-stroke"/>
                <line x1="112" y1="137" x2="149" y2="137" id="Path" stroke="#FFFFFF" stroke-width="2.04" stroke-linecap="round" stroke-linejoin="round" vector-effect="non-scaling-stroke"/>
                <line x1="112" y1="143" x2="128" y2="143" id="Path" stroke="#FFFFFF" stroke-width="2.04" stroke-linecap="round" stroke-linejoin="round" vector-effect="non-scaling-stroke"/>
                <line x1="112" y1="158" x2="149" y2="158" id="Path" stroke="#FFFFFF" stroke-width="2.04" stroke-linecap="round" stroke-linejoin="round" vector-effect="non-scaling-stroke"/>
                <line x1="112" y1="164" x2="128" y2="164" id="Path" stroke="#FFFFFF" stroke-width="2.04" stroke-linecap="round" stroke-linejoin="round" vector-effect="non-scaling-stroke"/>
                <circle id="Oval" fill="#FFFFFF" fill-rule="nonzero" cx="99" cy="139" r="7" vector-effect="non-scaling-stroke"/>
                <circle id="Oval" fill="#FFFFFF" fill-rule="nonzero" cx="99" cy="160" r="7" vector-effect="non-scaling-stroke"/>
                <polygon id="Path" fill="#E49D75" fill-rule="nonzero" points="18 169.984985 24.737975 166 29 174.018018 21.1512091 178" vector-effect="non-scaling-stroke"/>
                <polygon id="Path" fill="#E49D75" fill-rule="nonzero" points="67 166.870843 68.5571468 176 78 174.360402 74.8857064 164" vector-effect="non-scaling-stroke"/>
                <path d="M90,98 C87.3076179,98.1459063 43.1296742,107.691096 42.5548301,109.929298 C37.8240976,128.290145 64.8447041,166.83275 66.8302626,168 C68.9712636,167.48641 76.2770631,164.953477 76.2770631,164.953477 L74.5994568,139.253543 L90,98 Z" id="Path" fill="#AAAAAA" fill-rule="nonzero" vector-effect="non-scaling-stroke"/>
                <polygon id="Path" fill="#000000" fill-rule="nonzero" points="24 180.37309 18.5749386 169.074618 3.81228501 155 0 157.091657 14.6152334 185" vector-effect="non-scaling-stroke"/>
                <polygon id="Path" fill="#000000" fill-rule="nonzero" points="80.0216246 173 67.6072452 175.087927 50 184.988835 51.014324 189 82 182.736218" vector-effect="non-scaling-stroke"/>
                <path d="M122.280078,86 C123.954296,87.3746689 125.70851,93.5709378 125.911359,95.6725106 C128.102698,120.053099 88.9871479,134.40945 83.5702256,136.818784 C78.4275778,141.230035 33.5722612,175.154168 30.8380868,175.957279 C28.1039124,176.760391 23.6326659,165.991663 24.0240785,164.55251 C24.4154912,163.113358 90.1585287,95.3119897 90.1585287,95.3119897 L122.280078,86 Z" id="Path" fill="#979797" fill-rule="nonzero" vector-effect="non-scaling-stroke"/>
                <path d="M92,43.3618532 C86.0274045,40.382731 80.5049891,56.722765 81.0353383,58.5936662 C81.5656876,60.4645674 87.0480184,61 88.4355599,61 C89.8231015,61 92,43.3618532 92,43.3618532 Z" id="Path" fill="#D59A1B" fill-rule="nonzero" vector-effect="non-scaling-stroke"/>
                <path d="M101.770232,36 C122.280428,36 124.215407,84.8895952 123.983325,88.225284 C121.911999,95.0242879 97.0676819,103.192375 89.4205989,98.7225516 C77.2856414,70.2734771 82.8759027,36 101.770232,36 Z" id="Path" fill="#F0B535" fill-rule="nonzero" vector-effect="non-scaling-stroke"/>
                <path d="M122.651159,59 C123.785694,61.0024875 126.227099,74.0513375 125.982959,75.753749 C125.738818,77.4561605 121.961821,81.7522983 120.617613,81.8473718 C101.505722,83.1902863 80.7767591,75.2902653 76.9021061,73.0708912 C68.7966423,72.402405 64,69.3749054 64,64.9480414 C64,62.3335177 65.4016536,60.4498722 66.1742864,60.4498722 C67.6391292,60.4498722 70.2413795,63.0614249 70.557326,63.8249846 C69.925433,62.4820702 67.9435868,60.016099 69.5750196,60.016099 C70.0288337,60.016099 73.7110465,65.34022 75.7101262,66.6326266 C77.7092058,67.9250332 106.560866,69.0094663 112.345559,71.1842746 C111.607393,69.6630972 109.53938,64.1488291 109.504913,63.3525877 C109.470446,62.5563464 122.651159,59 122.651159,59 Z" id="Path" fill="#E49D75" fill-rule="nonzero" vector-effect="non-scaling-stroke"/>
                <path d="M106.4315,39.3549908 C115.281226,36.0444133 122.277743,56.9110836 121.991522,59.5548246 C121.705301,62.1985657 107.535909,66.8280631 105.940009,65.8720674 C104.344109,64.9160718 97.6598338,42.6360622 106.4315,39.3549908 Z" id="Path" fill="#D59A1B" fill-rule="nonzero" vector-effect="non-scaling-stroke"/>
                <path d="M102.071944,27 C101.971111,28.1603662 102.7625,34.6447653 104,36.7607271 C103.453056,37.7217833 97.8308333,40.5148529 95.1388889,39.9169231 C94.7722222,38.1204032 93.7975,33.2960103 93,31.8271232 C94.4391667,31.155476 102.071944,27 102.071944,27 Z" id="Path" fill="#D18C65" fill-rule="nonzero" vector-effect="non-scaling-stroke"/>
                <ellipse id="Oval" fill="#E49D75" fill-rule="nonzero" transform="translate(92.536042, 18.496303) rotate(-14.860000) translate(-92.536042, -18.496303) " cx="92.536042" cy="18.4963035" rx="11.6167121" ry="14.6028814" vector-effect="non-scaling-stroke"/>
                <path d="M97.5276384,18.748938 C96.8736124,18.7846219 94.3782968,17.5 93.8244369,13.6461342 C92.0243922,13.3487681 84.0876977,14.202209 79.9278563,17.5118946 C78.3870652,18.106627 77.1379344,18.6032285 74.8075983,18.6032285 C73.7028246,18.6032285 72.7659765,17.4375531 72.7659765,16.6376381 C72.7659765,14.4341546 73.7028246,12.2990654 76.4397174,12.1563297 C74.1358959,12.1057774 72,10.6694987 72,9.61087511 C72,8.20433305 75.167018,3.8895497 80.6908867,5.78079864 C79.3946189,4.83517417 77.9304254,3.913339 77.9304254,3.01826678 C77.9304254,1.48683093 80.1134583,0 83.9315563,0 C89.8384132,0 96.2755615,2.471113 97.6661034,4.2404418 C98.3142373,3.90144435 99.1391351,3.27102804 100.718225,3.27102804 C104.654166,3.27102804 105.974002,16.1410365 104.271177,20.4558199 C103.849463,20.7292692 103.377578,20.9143308 102.883581,21" id="Path" fill="#979797" fill-rule="nonzero" vector-effect="non-scaling-stroke"/>
                <path d="M98,18.0055393 C98.3538094,16.8312776 99.2926756,16.0337262 100.359666,16.0010417 C101.426656,15.9683573 102.400137,16.7073289 102.806329,17.85831 C103.212521,19.009291 102.967051,20.3332011 102.189386,21.1857125 C101.41172,22.038224 100.263395,22.2422542 99.3032828,21.6985046" id="Path" fill="#E49D75" fill-rule="nonzero" vector-effect="non-scaling-stroke"/>
            </g>
        </g>
    </g>
</svg>